HIERARCHY
ROOT Hips
{
	OFFSET 0.00000 0.00000 0.00000
	CHANNELS 6 Xposition Yposition Zposition Yrotation Zrotation Xrotation 
	JOINT Lumbar
	{
		OFFSET 0 0 0
		CHANNELS 3 Zrotation Xrotation Yrotation
		JOINT Neck
		{
			OFFSET 0.00 0.2701 0.00
			CHANNELS 3 Zrotation Xrotation Yrotation
			End Site
			{
				OFFSET 0.00 0.1379 0.00
			}
		}
		JOINT RightShoulder
		{
			OFFSET 0.0119 0.2289 0.1181
			CHANNELS 3 Zrotation Xrotation Yrotation
			JOINT RightElbow
			{
				OFFSET 0.00 -0.1475 0.00
				CHANNELS 2 Zrotation Yrotation
				JOINT RightWrist
				{
					OFFSET 0.00 -0.1605 0.00
					CHANNELS 2 Zrotation Xrotation
					End Site
					{
						OFFSET 0.0040 -0.1068 0.0006
					}
				}
			}
		}
		JOINT LeftShoulder
		{
			OFFSET 0.0119 0.2289 -0.1181
			CHANNELS 3 Zrotation Xrotation Yrotation
			JOINT LeftElbow
			{
				OFFSET 0.00 -0.1475 0.00
				CHANNELS 2 Zrotation Yrotation
				JOINT LeftWrist
				{
					OFFSET 0.00 -0.1605 0.00
					CHANNELS 2 Zrotation Xrotation
					End Site
					{
						OFFSET 0.0040 -0.1068 -0.0006
					}
				}
			}
		}
	}
	JOINT RightHip
	{
		OFFSET 0.0316 -0.0424 0.0458
		CHANNELS 3 Zrotation Xrotation Yrotation
		JOINT RightKnee
		{
			OFFSET 0.00 -0.2438 0.00
			CHANNELS 1 Zrotation
			JOINT RightAnkle
			{
				OFFSET 0.00 -0.2449 0.00
				CHANNELS 3 Zrotation Xrotation Yrotation
				End Site
				{
					OFFSET 0.1237 -0.0542 0.0051
				}
			}
		}
	}
	JOINT LeftHip
	{
		OFFSET 0.0316 -0.0424 -0.0458
		CHANNELS 3 Zrotation Xrotation Yrotation
		JOINT LeftKnee
		{
			OFFSET 0.00 -0.2438 0.00
			CHANNELS 1 Zrotation
			JOINT LeftAnkle
			{
				OFFSET 0.00 -0.2449 0.00
				CHANNELS 3 Zrotation Xrotation Yrotation
				End Site
				{
					OFFSET 0.1237 -0.0542 -0.0051
				}
			}
		}
	}
}
MOTION
Frames: 33
Frame Time: 0.02
1e-05 7e-05 0.00012 172.01331 -45.65537 0.66571 56.1634 2.23261 3.54928 -7.12651 -6.8877 -1.30624 139.73581 -72.83296 -87.063 12.79426 104.34547 17.26855 2.88909 122.34258 76.18018 87.14665 8.67398 -97.18833 13.35857 -1.74131 50.94228 -1.23294 -9.78004 -19.16257 -7.52708 -3.65284 -4.02261 54.49214 2.19135 6.01893 -24.14617 -8.80225 4.1223 4.38635
-1e-05 6e-05 6e-05 172.13814 -45.65529 0.68114 56.12623 2.20215 3.53531 -7.06696 -6.86411 -1.30667 139.12454 -72.79415 -87.07018 12.7779 104.28229 17.03173 2.64574 122.08171 76.09198 87.14663 8.64154 -97.11447 13.27769 -1.57057 50.92803 -1.23699 -9.80643 -19.16278 -7.5245 -3.65031 -4.02463 54.48821 2.28479 6.466 -24.15085 -8.76899 4.09847 4.36648
-3e-05 5e-05 -0 172.26268 -45.65524 0.69653 56.08917 2.17175 3.52142 -7.00756 -6.84052 -1.30711 138.51479 -72.75544 -87.07734 12.76158 104.21932 16.79552 2.40304 121.82147 76.00404 87.14662 8.60915 -97.04085 13.19692 -1.40035 50.91382 -1.2411 -9.83321 -19.16297 -7.5219 -3.64777 -4.02662 54.48431 2.37798 6.91181 -24.15552 -8.7358 4.07469 4.34665
-5e-05 3e-05 -6e-05 172.38714 -45.65516 0.71192 56.05211 2.14138 3.5075 -6.94819 -6.81699 -1.30755 137.90533 -72.71674 -87.08449 12.74527 104.15635 16.55942 2.16043 121.56138 75.91611 87.1466 8.5768 -96.96723 13.11628 -1.23014 50.89962 -1.24515 -9.85959 -19.16317 -7.51932 -3.64524 -4.02863 54.48039 2.47114 7.3575 -24.16019 -8.70264 4.05094 4.32684
-7e-05 2e-05 -0.00013 172.51185 -45.65504 0.72735 56.01497 2.11095 3.49349 -6.88869 -6.79348 -1.30798 137.29452 -72.67794 -87.09167 12.72893 104.09315 16.32275 1.91722 121.30073 75.82793 87.14659 8.54443 -96.89335 13.03553 -1.05939 50.88537 -1.24912 -9.88544 -19.16338 -7.51676 -3.64274 -4.03067 54.47642 2.56455 7.80445 -24.16487 -8.66941 4.02714 4.30698
-9e-05 1e-05 -0.00019 172.63602 -45.65514 0.74266 55.97807 2.08063 3.47986 -6.82951 -6.76972 -1.30842 136.68706 -72.63943 -87.09879 12.71262 104.03065 16.08752 1.6756 121.04137 75.74051 87.14658 8.51199 -96.82026 12.95471 -0.89027 50.87126 -1.25352 -9.91416 -19.16354 -7.51407 -3.64011 -4.03258 54.47268 2.65728 8.24786 -24.16949 -8.6363 4.00339 4.28723
-0.00011 0 -0.00025 172.76115 -45.65479 0.75819 55.94072 2.05012 3.46547 -6.76973 -6.74649 -1.30885 136.07344 -72.60038 -87.10601 12.69628 103.96685 15.84969 1.43106 120.77972 75.65164 87.14656 8.4797 -96.74572 12.87421 -0.71812 50.85688 -1.25705 -9.93706 -19.1638 -7.51165 -3.63775 -4.03475 54.46849 2.75125 8.69775 -24.17425 -8.60301 3.97959 4.26728
-0.00013 -1e-05 -0.00031 172.88539 -45.65487 0.77352 55.90378 2.01979 3.45178 -6.71053 -6.72278 -1.30929 135.46566 -72.56181 -87.11314 12.67996 103.90417 15.6142 1.18919 120.52014 75.56414 87.14655 8.44732 -96.67241 12.79327 -0.54865 50.84276 -1.26138 -9.96533 -19.16397 -7.50898 -3.63513 -4.03668 54.46471 2.84413 9.14197 -24.17888 -8.56986 3.95581 4.2475
-0.00015 -2e-05 -0.00037 173.00861 -45.65542 0.7886 55.86733 1.98964 3.43897 -6.65191 -6.69843 -1.30974 134.8641 -72.5239 -87.12017 12.66369 103.84314 15.38166 0.95057 120.2631 75.47816 87.14653 8.41461 -96.60102 12.71233 -0.38286 50.82893 -1.26669 -10.00024 -19.16402 -7.50602 -3.63223 -4.0383 54.46143 2.93551 9.57826 -24.18336 -8.53696 3.93216 4.22798
-0.00017 -3e-05 -0.00044 173.13791 -45.65312 0.80509 55.82802 1.95835 3.42115 -6.58958 -6.67761 -1.31014 134.22396 -72.48239 -87.12778 12.64721 103.77349 15.1324 0.69317 119.99146 75.38296 87.14654 8.38315 -96.51983 12.63298 -0.19708 50.81333 -1.26639 -9.99718 -19.16473 -7.50478 -3.63104 -4.04167 54.45528 3.035 10.05716 -24.1887 -8.50284 3.90805 4.20711
-0.00019 -4e-05 -0.0005 173.25424 -45.65691 0.81865 55.7948 1.92952 3.41387 -6.5353 -6.64944 -1.31064 133.66708 -72.44837 -87.13417 12.63113 103.72146 14.91831 0.47548 119.75065 75.30753 87.14649 8.34946 -96.45853 12.54929 -0.05276 50.80154 -1.27791 -10.07403 -19.16406 -7.49988 -3.62619 -4.04135 54.45519 3.11772 10.44804 -24.19223 -8.47118 3.88476 4.18902
-0.00024 -5e-05 -0.00055 173.3358 -45.67701 0.82378 55.778 1.90716 3.43591 -6.50142 -6.60024 -1.31138 133.32548 -72.43599 -87.13732 12.6166 103.72292 14.8023 0.36686 119.59484 75.28419 87.1463 8.30636 -96.45754 12.46117 -0.02903 50.79948 -1.32209 -10.37385 -19.15953 -7.485 -3.61147 -4.0308 54.472 3.15101 10.57913 -24.19075 -8.4474 3.8649 4.17927
-0.0003 -5e-05 -0.0006 173.40417 -45.70331 0.82607 55.76739 1.88731 3.46841 -6.47595 -6.54386 -1.31222 133.07001 -72.43093 -87.13923 12.6024 103.74113 14.72116 0.298 119.46995 75.28112 87.14605 8.26166 -96.47463 12.36703 -0.04563 50.80137 -1.37804 -10.753 -19.15363 -7.46646 -3.59304 -4.01657 54.49488 3.16797 10.62474 -24.18746 -8.42594 3.84568 4.17221
-0.00036 -5e-05 -0.00065 173.47803 -45.72708 0.82995 55.75411 1.86649 3.49592 -6.44771 -6.4913 -1.31301 132.78362 -72.42181 -87.14166 12.58779 103.74827 14.62325 0.21102 119.33055 75.27018 87.14582 8.21981 -96.48077 12.27111 -0.03936 50.8019 -1.42848 -11.09374 -19.14839 -7.44956 -3.57616 -4.00408 54.51481 3.19476 10.72201 -24.18503 -8.40263 3.82534 4.16341
-0.00041 -5e-05 -0.00071 173.554 -45.74966 0.83255 55.74016 1.84497 3.52461 -6.41493 -6.43626 -1.31383 132.46229 -72.41584 -87.14428 12.57433 103.76993 14.52998 0.12476 119.19291 75.25359 87.14565 8.16885 -96.50191 12.19537 -0.05247 50.80057 -1.47976 -11.44555 -19.143 -7.43267 -3.5598 -3.99125 54.53551 3.21183 10.767 -24.18247 -8.3825 3.80833 4.1567
-0.00047 -5e-05 -0.00075 173.62244 -45.77618 0.83716 55.72917 1.8255 3.55313 -6.39372 -6.38482 -1.3146 132.23465 -72.40501 -87.1462 12.55847 103.76547 14.43449 0.04588 119.05924 75.25361 87.14534 8.13667 -96.49179 12.07478 -0.03464 50.80406 -1.53192 -11.79191 -19.13757 -7.41497 -3.54155 -3.9783 54.55611 3.24469 10.89813 -24.17974 -8.35652 3.78475 4.14638
-0.00055 -4e-05 -0.00075 173.67351 -45.81202 0.84776 55.72405 1.81106 3.58008 -6.40151 -6.34401 -1.31516 132.23983 -72.37929 -87.14663 12.53666 103.68292 14.33126 -0.01784 118.92604 75.29395 87.14461 8.1552 -96.4292 11.84363 0.07782 50.81994 -1.58498 -12.11372 -19.13257 -7.39543 -3.51834 -3.96558 54.57445 3.33011 11.30995 -24.17703 -8.31195 3.74103 4.1244
-0.00062 -2e-05 -0.00073 173.71738 -45.85161 0.86051 55.72188 1.79859 3.60625 -6.42081 -6.30727 -1.31567 132.33701 -72.34841 -87.14638 12.5123 103.57358 14.22325 -0.07642 118.79615 75.35036 87.14376 8.19295 -96.32837 11.56543 0.22321 50.84051 -1.63824 -12.42533 -19.12753 -7.37529 -3.4935 -3.95294 54.59256 3.43109 11.80743 -24.17422 -8.26175 3.69102 4.09888
-0.0007 0 -0.00072 173.76452 -45.8895 0.87245 55.71886 1.78522 3.63177 -6.43541 -6.26943 -1.3162 132.39539 -72.31964 -87.14635 12.48859 103.47802 14.11296 -0.14026 118.66682 75.39982 87.14302 8.22299 -96.21867 11.30091 0.35361 50.85891 -1.69056 -12.73524 -19.12237 -7.35574 -3.46982 -3.94048 54.61115 3.52165 12.25131 -24.17145 -8.21533 3.64509 4.07567
-0.00077 2e-05 -0.00071 173.81147 -45.9276 0.88367 55.7139 1.77197 3.66177 -6.44806 -6.22826 -1.31672 132.44478 -72.29194 -87.14662 12.46698 103.37732 14.02289 -0.19017 118.53043 75.44862 87.14205 8.24882 -96.21632 11.06834 0.48158 50.87766 -1.74701 -13.07512 -19.11776 -7.33471 -3.4442 -3.92696 54.62845 3.62564 12.7539 -24.16864 -8.16382 3.59405 4.0496
-0.00086 4e-05 -0.0007 173.85698 -45.96604 0.89685 55.71369 1.7589 3.68224 -6.46742 -6.19497 -1.31725 132.53273 -72.26091 -87.14612 12.44049 103.27943 13.88886 -0.26863 118.40842 75.50221 87.14153 8.28776 -95.98624 10.75859 0.62439 50.89669 -1.79459 -13.34856 -19.11203 -7.3167 -3.42234 -3.91575 54.64819 3.7057 13.15597 -24.16591 -8.12155 3.55215 4.02862
-0.00102 5e-05 -0.00067 173.90304 -46.00474 0.91577 55.72527 1.74588 3.67538 -6.50226 -6.18349 -1.31785 132.7113 -72.22031 -87.14352 12.39996 103.20291 13.63659 -0.42499 118.33105 75.56609 87.14232 8.36022 -95.09168 10.24268 0.78809 50.91558 -1.81879 -13.44555 -19.10314 -7.3069 -3.41089 -3.91064 54.67573 3.71499 13.25721 -24.16343 -8.10621 3.53691 4.02262
-0.00119 6e-05 -0.00063 173.94749 -46.04355 0.93644 55.74162 1.73294 3.65907 -6.54344 -6.1796 -1.31845 132.9233 -72.17689 -87.14014 12.35472 103.12592 13.33971 -0.61061 118.26665 75.63392 87.14352 8.44479 -93.97734 9.65131 0.96809 50.93449 -1.83379 -13.47493 -19.09319 -7.30022 -3.40337 -3.90793 54.7055 3.69993 13.25512 -24.16107 -8.10033 3.5311 4.02186
-0.00136 7e-05 -0.0006 173.99093 -46.08214 0.95579 55.75619 1.71999 3.64791 -6.58183 -6.17168 -1.31905 133.11592 -72.1357 -87.13726 12.31252 103.04803 13.06179 -0.78484 118.19261 75.6992 87.14458 8.52255 -92.99332 9.09789 1.14867 50.95323 -1.85217 -13.5317 -19.08377 -7.29231 -3.39433 -3.90432 54.73357 3.69672 13.30241 -24.15866 -8.09008 3.52104 4.01867
-0.00152 8e-05 -0.00057 174.04138 -46.12166 0.97746 55.76927 1.70709 3.63335 -6.62027 -6.16658 -1.31966 133.33171 -72.09 -87.13391 12.26685 102.98551 12.78927 -0.95195 118.13519 75.76833 87.14563 8.60668 -91.88043 8.52863 1.29645 50.97289 -1.8739 -13.60163 -19.07404 -7.28363 -3.38415 -3.8999 54.76454 3.69076 13.34275 -24.15615 -8.07994 3.5106 4.01557
-0.0017 8e-05 -0.00054 174.07704 -46.15913 0.99467 55.78649 1.69394 3.62331 -6.65994 -6.15708 -1.32024 133.50318 -72.05352 -87.13113 12.2268 102.87666 12.49498 -1.13947 118.04532 75.83006 87.14655 8.67991 -90.98306 7.97351 1.51624 50.99049 -1.88654 -13.62897 -19.06482 -7.27727 -3.37728 -3.89772 54.78997 3.6845 13.37152 -24.15395 -8.0719 3.5033 4.01358
-0.00194 8e-05 -0.00054 174.07116 -46.1915 0.9992 55.81426 1.68131 3.63089 -6.70176 -6.13565 -1.32068 133.56008 -72.03999 -87.13027 12.20695 102.76944 12.1507 -1.38968 117.86175 75.87161 87.14706 8.72135 -90.74376 7.48905 1.92803 51.00313 -1.87565 -13.54891 -19.05665 -7.27665 -3.37872 -3.90136 54.79975 3.6836 13.39684 -24.15216 -8.06747 3.50223 4.01331
-0.00219 7e-05 -0.00054 174.05052 -46.22159 0.99916 55.84586 1.66811 3.64276 -6.74462 -6.10894 -1.32112 133.56262 -72.03686 -87.12868 12.19155 102.59494 11.7858 -1.65774 117.63957 75.90553 87.14592 8.75049 -90.72654 7.01915 2.41158 51.0136 -1.85611 -13.42965 -19.04935 -7.27822 -3.38331 -3.90711 54.80377 3.68313 13.41311 -24.15077 -8.06488 3.50408 4.01402
-0.00244 6e-05 -0.00054 174.03761 -46.25241 1.00116 55.87563 1.65444 3.6509 -6.78656 -6.08354 -1.32155 133.58562 -72.03057 -87.12896 12.17272 102.36221 11.43147 -1.90776 117.44283 75.94171 87.1474 8.78504 -90.60294 6.53422 2.8647 51.02445 -1.84093 -13.33243 -19.04183 -7.27872 -3.38642 -3.91176 54.81036 3.68224 13.43095 -24.14947 -8.06138 3.5047 4.01434
-0.00269 5e-05 -0.00054 174.021 -46.28483 1.0034 55.90635 1.64416 3.6665 -6.83003 -6.0638 -1.32189 133.6489 -72.01591 -87.12807 12.1626 102.49054 11.07235 -2.19736 117.23643 75.98205 87.14716 8.82309 -90.49826 6.0823 3.31141 51.03753 -1.8234 -13.21462 -19.03273 -7.2797 -3.39002 -3.91714 54.81745 3.68141 13.4558 -24.147 -8.05843 3.50519 4.01459
-0.00293 4e-05 -0.00055 174.00775 -46.31298 1.004 55.93541 1.62631 3.66734 -6.8712 -6.0299 -1.32255 133.58844 -72.02328 -87.12276 12.1318 101.86824 10.7166 -2.41258 117.01167 76.01323 87.14237 8.84786 -90.4053 5.56588 3.7855 51.04587 -1.80912 -13.13172 -19.02813 -7.28009 -3.39311 -3.92137 54.82182 3.68091 13.46546 -24.14708 -8.05475 3.50656 4.01517
-0.00318 1e-05 -0.00059 174.01412 -46.33357 1.0015 55.96319 1.59077 3.62942 -6.89881 -5.96688 -1.32314 133.417 -72.06892 -87.13123 12.07526 99.03732 10.3884 -2.37889 116.98536 76.00684 87.1563 8.86467 -90.31928 4.86731 4.33738 51.03854 -1.80341 -13.15099 -19.02779 -7.27887 -3.39567 -3.9227 54.82259 3.68105 13.43421 -24.15402 -8.04762 3.50913 4.01619
-0.00342 -2e-05 -0.00064 174.0227 -46.34934 0.99743 55.98813 1.547 3.57594 -6.92485 -5.88801 -1.32421 133.07613 -72.13874 -87.10883 11.9925 95.47978 10.05761 -2.2749 116.89046 75.99251 87.1356 8.86433 -90.22576 4.10205 4.9078 51.02744 -1.80171 -13.20744 -19.0337 -7.27687 -3.39731 -3.92264 54.82048 3.68175 13.38903 -24.16358 -8.03981 3.51252 4.01753
